<svg xmlns="http://www.w3.org/2000/svg" version="1.1" xmlns:xlink="http://www.w3.org/1999/xlink" xmlns:svgjs="http://svgjs.com/svgjs" width="1500" height="600" preserveAspectRatio="none" viewBox="0 0 1500 600"><g mask="url(&quot;#SvgjsMask1048&quot;)" fill="none"><rect width="1500" height="600" x="0" y="0" fill="rgba(68, 68, 68, 1)"></rect><g transform="translate(0, 0)" stroke-linecap="round"><path d="M270 273.52 L270 326.48" stroke-width="22.5" stroke="rgba(54, 58, 61, 1)"></path><path d="M300 289.3 L300 310.7" stroke-width="22.5" stroke="rgba(255, 185, 197, 0.87)"></path><path d="M330 137.81 L330 340.31" stroke-width="22.5" stroke="rgba(54, 58, 61, 1)"></path><path d="M330 374.06 L330 462.19" stroke-width="22.5" stroke="rgba(255, 185, 197, 0.87)"></path><path d="M360 165.49 L360 255.49" stroke-width="22.5" stroke="rgba(54, 58, 61, 1)"></path><path d="M360 289.24 L360 434.51" stroke-width="22.5" stroke="rgba(54, 58, 61, 1)"></path><path d="M390 164.29 L390 231.79" stroke-width="22.5" stroke="rgba(54, 58, 61, 1)"></path><path d="M390 265.53999999999996 L390 435.71" stroke-width="22.5" stroke="rgba(255, 185, 197, 0.87)"></path><path d="M420 208.15 L420 298.15" stroke-width="22.5" stroke="rgba(255, 185, 197, 0.87)"></path><path d="M420 331.9 L420 391.85" stroke-width="22.5" stroke="rgba(54, 58, 61, 1)"></path><path d="M450 191.56 L450 214.06" stroke-width="22.5" stroke="rgba(54, 58, 61, 1)"></path><path d="M450 247.81 L450 408.44" stroke-width="22.5" stroke="rgba(255, 185, 197, 0.87)"></path><path d="M480 155.5 L480 290.5" stroke-width="22.5" stroke="rgba(54, 58, 61, 1)"></path><path d="M480 324.25 L480 369.25" stroke-width="22.5" stroke="rgba(255, 185, 197, 0.87)"></path><path d="M480 403 L480 444.5" stroke-width="22.5" stroke="rgba(54, 58, 61, 1)"></path><path d="M510 259.31 L510 340.69" stroke-width="22.5" stroke="rgba(255, 185, 197, 0.87)"></path><path d="M540 272.75 L540 327.25" stroke-width="22.5" stroke="rgba(54, 58, 61, 1)"></path><path d="M570 151.46 L570 308.96000000000004" stroke-width="22.5" stroke="rgba(255, 185, 197, 0.87)"></path><path d="M570 342.71000000000004 L570 387.71000000000004" stroke-width="22.5" stroke="rgba(54, 58, 61, 1)"></path><path d="M570 421.46000000000004 L570 448.54" stroke-width="22.5" stroke="rgba(255, 185, 197, 0.87)"></path><path d="M600 158.8 L600 248.8" stroke-width="22.5" stroke="rgba(255, 185, 197, 0.87)"></path><path d="M600 282.55 L600 441.2" stroke-width="22.5" stroke="rgba(54, 58, 61, 1)"></path><path d="M630 265.75 L630 334.25" stroke-width="22.5" stroke="rgba(255, 185, 197, 0.87)"></path><path d="M660 270.32 L660 329.68" stroke-width="22.5" stroke="rgba(54, 58, 61, 1)"></path><path d="M690 272.44 L690 327.56" stroke-width="22.5" stroke="rgba(54, 58, 61, 1)"></path><path d="M720 239.78 L720 284.78" stroke-width="22.5" stroke="rgba(54, 58, 61, 1)"></path><path d="M720 318.53 L720 360.22" stroke-width="22.5" stroke="rgba(255, 185, 197, 0.87)"></path><path d="M750 225.58 L750 270.58000000000004" stroke-width="22.5" stroke="rgba(54, 58, 61, 1)"></path><path d="M750 304.33000000000004 L750 374.42" stroke-width="22.5" stroke="rgba(255, 185, 197, 0.87)"></path><path d="M780 261.40999999999997 L780 338.58" stroke-width="22.5" stroke="rgba(255, 185, 197, 0.87)"></path><path d="M810 146.69 L810 453.31" stroke-width="22.5" stroke="rgba(255, 185, 197, 0.87)"></path><path d="M840 137.95999999999998 L840 205.45999999999998" stroke-width="22.5" stroke="rgba(255, 185, 197, 0.87)"></path><path d="M840 239.20999999999998 L840 261.71" stroke-width="22.5" stroke="rgba(54, 58, 61, 1)"></path><path d="M840 295.46 L840 462.04" stroke-width="22.5" stroke="rgba(54, 58, 61, 1)"></path><path d="M870 246.44 L870 268.94" stroke-width="22.5" stroke="rgba(255, 185, 197, 0.87)"></path><path d="M870 302.69 L870 353.56" stroke-width="22.5" stroke="rgba(54, 58, 61, 1)"></path><path d="M900 213.41 L900 258.40999999999997" stroke-width="22.5" stroke="rgba(255, 185, 197, 0.87)"></path><path d="M900 292.15999999999997 L900 386.59" stroke-width="22.5" stroke="rgba(54, 58, 61, 1)"></path><path d="M930 268.28 L930 331.72" stroke-width="22.5" stroke="rgba(255, 185, 197, 0.87)"></path><path d="M960 131.57 L960 154.07" stroke-width="22.5" stroke="rgba(255, 185, 197, 0.87)"></path><path d="M960 187.82 L960 468.43" stroke-width="22.5" stroke="rgba(255, 185, 197, 0.87)"></path><path d="M990 285.8 L990 314.2" stroke-width="22.5" stroke="rgba(54, 58, 61, 1)"></path><path d="M1020 164.89 L1020 322.39" stroke-width="22.5" stroke="rgba(54, 58, 61, 1)"></path><path d="M1020 356.14 L1020 378.64" stroke-width="22.5" stroke="rgba(54, 58, 61, 1)"></path><path d="M1020 412.39 L1020 435.11" stroke-width="22.5" stroke="rgba(255, 185, 197, 0.87)"></path><path d="M1050 288.17 L1050 311.83" stroke-width="22.5" stroke="rgba(255, 185, 197, 0.87)"></path><path d="M1080 280.04 L1080 319.96" stroke-width="22.5" stroke="rgba(54, 58, 61, 1)"></path><path d="M1110 225.01 L1110 247.51" stroke-width="22.5" stroke="rgba(54, 58, 61, 1)"></path><path d="M1110 281.26 L1110 303.76" stroke-width="22.5" stroke="rgba(255, 185, 197, 0.87)"></path><path d="M1110 337.51 L1110 374.99" stroke-width="22.5" stroke="rgba(54, 58, 61, 1)"></path><path d="M1140 184.75 L1140 415.25" stroke-width="22.5" stroke="rgba(54, 58, 61, 1)"></path><path d="M1170 197.94 L1170 265.44" stroke-width="22.5" stroke="rgba(255, 185, 197, 0.87)"></path><path d="M1170 299.19 L1170 344.19" stroke-width="22.5" stroke="rgba(255, 185, 197, 0.87)"></path><path d="M1170 377.94 L1170 402.06" stroke-width="22.5" stroke="rgba(255, 185, 197, 0.87)"></path><path d="M1200 198.55 L1200 243.55" stroke-width="22.5" stroke="rgba(255, 185, 197, 0.87)"></path><path d="M1200 277.3 L1200 344.8" stroke-width="22.5" stroke="rgba(255, 185, 197, 0.87)"></path><path d="M1200 378.55 L1200 401.45" stroke-width="22.5" stroke="rgba(255, 185, 197, 0.87)"></path><path d="M1230 200.82 L1230 245.82" stroke-width="22.5" stroke="rgba(255, 185, 197, 0.87)"></path><path d="M1230 279.57 L1230 302.07" stroke-width="22.5" stroke="rgba(255, 185, 197, 0.87)"></path><path d="M1230 335.82 L1230 399.18" stroke-width="22.5" stroke="rgba(54, 58, 61, 1)"></path></g></g><defs><mask id="SvgjsMask1048"><rect width="1500" height="600" fill="#ffffff"></rect></mask></defs></svg>