<svg xmlns="http://www.w3.org/2000/svg" version="1.1" xmlns:xlink="http://www.w3.org/1999/xlink" xmlns:svgjs="http://svgjs.com/svgjs" width="1440" height="560" preserveAspectRatio="none" viewBox="0 0 1440 560"><g mask="url(&quot;#SvgjsMask1011&quot;)" fill="none"><rect width="1440" height="560" x="0" y="0" fill="rgba(68, 68, 68, 1)"></rect><path d="M1560 560L0 560 L0 312.13Q67.77 307.9, 72 375.67Q109.57 293.24, 192 330.81Q265.6 284.41, 312 358.02Q366.31 292.33, 432 346.65Q452.46 295.11, 504 315.57Q551.74 243.31, 624 291.05Q679.23 274.28, 696 329.52Q749.92 263.44, 816 317.36Q906.03 287.39, 936 377.43Q947.07 316.5, 1008 327.57Q1052.53 252.1, 1128 296.63Q1223.59 272.22, 1248 367.81Q1286.59 286.4, 1368 324.99Q1418.42 303.41, 1440 353.83Q1494.72 288.55, 1560 343.27z" fill="rgba(51, 51, 51, 1)"></path><path d="M1560 560L0 560 L0 368.35Q96 344.35, 120 440.35Q149.44 397.8, 192 427.24Q235.84 351.08, 312 394.92Q358.13 369.06, 384 415.19Q411.85 323.04, 504 350.9Q569.4 296.3, 624 361.71Q698.61 316.31, 744 390.92Q826.43 353.36, 864 435.79Q865.68 365.47, 936 367.15Q966.81 325.96, 1008 356.77Q1100.34 329.11, 1128 421.44Q1199.37 372.81, 1248 444.17Q1249.69 373.87, 1320 375.56Q1367.42 302.99, 1440 350.41Q1531.98 322.39, 1560 414.38z" fill="rgba(34, 34, 34, 1)"></path><path d="M1464 560L0 560 L0 491.18Q30.65 449.83, 72 480.48Q123.6 460.08, 144 511.68Q170.63 418.31, 264 444.95Q291.38 400.33, 336 427.71Q393.67 413.38, 408 471.05Q476.14 419.19, 528 487.33Q561.57 400.9, 648 434.47Q702.08 368.55, 768 422.63Q831.98 414.61, 840 478.59Q915.48 434.06, 960 509.54Q1012.53 442.08, 1080 494.61Q1105.45 400.06, 1200 425.51Q1246.4 399.91, 1272 446.32Q1364.38 418.69, 1392 511.07Q1408.41 455.48, 1464 471.89z" fill="rgba(17, 17, 17, 1)"></path><path d="M1536 560L0 560 L0 534.13Q32.3 494.43, 72 526.74Q151.32 486.06, 192 565.38Q260.32 513.7, 312 582.02Q323.89 521.91, 384 533.81Q429.08 458.88, 504 503.96Q545.62 473.58, 576 515.19Q659.67 478.87, 696 562.54Q713.63 508.17, 768 525.8Q821.44 459.24, 888 512.68Q964.86 469.54, 1008 546.4Q1050.02 516.42, 1080 558.45Q1099.35 505.8, 1152 525.15Q1219.29 472.44, 1272 539.74Q1284.97 480.71, 1344 493.67Q1398.48 476.15, 1416 530.64Q1463.58 458.22, 1536 505.79z" fill="rgba(0, 0, 0, 1)"></path></g><defs><mask id="SvgjsMask1011"><rect width="1440" height="560" fill="#ffffff"></rect></mask></defs></svg>