<svg xmlns="http://www.w3.org/2000/svg" version="1.1" xmlns:xlink="http://www.w3.org/1999/xlink" xmlns:svgjs="http://svgjs.com/svgjs" width="950" height="560" preserveAspectRatio="none" viewBox="0 0 950 560"><g mask="url(&quot;#SvgjsMask1009&quot;)" fill="none"><rect width="950" height="560" x="0" y="0" fill="rgba(68, 68, 68, 1)"></rect><path d="M535.31 592.23C614.05 552.48 543.01 322.83 724.16 294.2 905.32 265.57 998.59 129.93 1101.87 126.2" stroke="rgba(34, 34, 34, 1)" stroke-width="2"></path><path d="M89.25 626.62C174.23 621.86 238.2 468.12 390.41 467.88 542.62 467.64 540.99 537.88 691.57 537.88 842.15 537.88 915.43 468.34 992.73 467.88" stroke="rgba(34, 34, 34, 1)" stroke-width="2"></path><path d="M469.88 621.34C552.55 575.2 512.78 296.78 662.63 295.37 812.48 293.96 943.05 459.77 1048.12 463.37" stroke="rgba(34, 34, 34, 1)" stroke-width="2"></path><path d="M188.74 602.17C325.47 575.2 353.02 250.88 599.82 225.63 846.63 200.38 898.86 50.27 1010.91 46.43" stroke="rgba(34, 34, 34, 1)" stroke-width="2"></path><path d="M402.54 621.2C476.54 598.78 413.65 415.43 605.44 387.76 797.23 360.09 892.93 150.76 1011.24 141.36" stroke="rgba(34, 34, 34, 1)" stroke-width="2"></path></g><defs><mask id="SvgjsMask1009"><rect width="950" height="560" fill="#ffffff"></rect></mask></defs></svg>