<svg xmlns="http://www.w3.org/2000/svg" version="1.1" xmlns:xlink="http://www.w3.org/1999/xlink" xmlns:svgjs="http://svgjs.com/svgjs" width="1440" height="560" preserveAspectRatio="none" viewBox="0 0 1440 560"><g mask="url(&quot;#SvgjsMask1454&quot;)" fill="none"><rect width="1440" height="560" x="0" y="0" fill="url(#SvgjsLinearGradient1455)"></rect><path d="M1440 0L1178.74 0L1440 92.63z" fill="rgba(255, 255, 255, .1)"></path><path d="M1178.74 0L1440 92.63L1440 288.38L754.6800000000001 0z" fill="rgba(255, 255, 255, .075)"></path><path d="M754.6800000000001 0L1440 288.38L1440 353.89L740.74 0z" fill="rgba(255, 255, 255, .05)"></path><path d="M740.74 0L1440 353.89L1440 478.94L606.11 0z" fill="rgba(255, 255, 255, .025)"></path><path d="M0 560L530.54 560L0 484.67z" fill="rgba(0, 0, 0, .1)"></path><path d="M0 484.67L530.54 560L757.93 560L0 286.65z" fill="rgba(0, 0, 0, .075)"></path><path d="M0 286.65L757.93 560L879.42 560L0 117.24999999999997z" fill="rgba(0, 0, 0, .05)"></path><path d="M0 117.25L879.42 560L1233.1999999999998 560L0 48.92z" fill="rgba(0, 0, 0, .025)"></path></g><defs><mask id="SvgjsMask1454"><rect width="1440" height="560" fill="#ffffff"></rect></mask><linearGradient x1="15.28%" y1="-39.29%" x2="84.72%" y2="139.29%" gradientUnits="userSpaceOnUse" id="SvgjsLinearGradient1455"><stop stop-color="rgba(68, 68, 68, 1)" offset="0"></stop><stop stop-color="rgba(34, 34, 34, 1)" offset="1"></stop></linearGradient></defs></svg>