<svg xmlns="http://www.w3.org/2000/svg" version="1.1" xmlns:xlink="http://www.w3.org/1999/xlink" xmlns:svgjs="http://svgjs.com/svgjs" width="960" height="400" preserveAspectRatio="none" viewBox="0 0 960 400"><g mask="url(&quot;#SvgjsMask1204&quot;)" fill="none"><rect width="960" height="400" x="0" y="0" fill="rgba(34, 34, 34, 1)"></rect><use xlink:href="#SvgjsSymbol1211" x="0" y="0"></use><use xlink:href="#SvgjsSymbol1211" x="720" y="0"></use></g><defs><mask id="SvgjsMask1204"><rect width="960" height="400" fill="#ffffff"></rect></mask><path d="M-1 0 a1 1 0 1 0 2 0 a1 1 0 1 0 -2 0z" id="SvgjsPath1205"></path><path d="M-3 0 a3 3 0 1 0 6 0 a3 3 0 1 0 -6 0z" id="SvgjsPath1209"></path><path d="M-5 0 a5 5 0 1 0 10 0 a5 5 0 1 0 -10 0z" id="SvgjsPath1208"></path><path d="M2 -2 L-2 2z" id="SvgjsPath1206"></path><path d="M6 -6 L-6 6z" id="SvgjsPath1207"></path><path d="M30 -30 L-30 30z" id="SvgjsPath1210"></path></defs><symbol id="SvgjsSymbol1211"><use xlink:href="#SvgjsPath1205" x="30" y="30" stroke="rgba(255, 197, 192, 0.26)"></use><use xlink:href="#SvgjsPath1206" x="30" y="90" stroke="rgba(255, 197, 192, 0.26)"></use><use xlink:href="#SvgjsPath1207" x="30" y="150" stroke="rgba(255, 197, 192, 0.26)"></use><use xlink:href="#SvgjsPath1208" x="30" y="210" stroke="rgba(255, 197, 192, 0.26)"></use><use xlink:href="#SvgjsPath1205" x="30" y="270" stroke="rgba(255, 197, 192, 0.26)"></use><use xlink:href="#SvgjsPath1205" x="30" y="330" stroke="rgba(255, 197, 192, 0.26)"></use><use xlink:href="#SvgjsPath1207" x="30" y="390" stroke="rgba(255, 197, 192, 0.26)"></use><use xlink:href="#SvgjsPath1209" x="90" y="30" stroke="rgba(255, 197, 192, 0.26)"></use><use xlink:href="#SvgjsPath1205" x="90" y="90" stroke="rgba(255, 197, 192, 0.26)"></use><use xlink:href="#SvgjsPath1210" x="90" y="150" stroke="rgba(255, 197, 192, 0.26)" stroke-width="3"></use><use xlink:href="#SvgjsPath1210" x="90" y="210" stroke="rgba(255, 197, 192, 0.26)" stroke-width="3"></use><use xlink:href="#SvgjsPath1208" x="90" y="270" stroke="rgba(255, 197, 192, 0.26)"></use><use xlink:href="#SvgjsPath1207" x="90" y="330" stroke="rgba(255, 197, 192, 0.26)"></use><use xlink:href="#SvgjsPath1207" x="90" y="390" stroke="rgba(255, 197, 192, 0.26)"></use><use xlink:href="#SvgjsPath1206" x="150" y="30" stroke="rgba(255, 197, 192, 0.26)"></use><use xlink:href="#SvgjsPath1209" x="150" y="90" stroke="rgba(255, 197, 192, 0.26)"></use><use xlink:href="#SvgjsPath1207" x="150" y="150" stroke="rgba(255, 197, 192, 0.26)"></use><use xlink:href="#SvgjsPath1206" x="150" y="210" stroke="rgba(255, 197, 192, 0.26)"></use><use xlink:href="#SvgjsPath1207" x="150" y="270" stroke="rgba(255, 197, 192, 0.26)"></use><use xlink:href="#SvgjsPath1208" x="150" y="330" stroke="rgba(255, 197, 192, 0.26)"></use><use xlink:href="#SvgjsPath1207" x="150" y="390" stroke="rgba(255, 197, 192, 0.26)"></use><use xlink:href="#SvgjsPath1208" x="210" y="30" stroke="rgba(255, 197, 192, 0.26)"></use><use xlink:href="#SvgjsPath1205" x="210" y="90" stroke="rgba(255, 197, 192, 0.26)"></use><use xlink:href="#SvgjsPath1208" x="210" y="150" stroke="rgba(255, 197, 192, 0.26)"></use><use xlink:href="#SvgjsPath1206" x="210" y="210" stroke="rgba(255, 197, 192, 0.26)"></use><use xlink:href="#SvgjsPath1206" x="210" y="270" stroke="rgba(255, 197, 192, 0.26)"></use><use xlink:href="#SvgjsPath1208" x="210" y="330" stroke="rgba(255, 197, 192, 0.26)"></use><use xlink:href="#SvgjsPath1210" x="210" y="390" stroke="rgba(255, 197, 192, 0.26)" stroke-width="3"></use><use xlink:href="#SvgjsPath1208" x="270" y="30" stroke="rgba(255, 197, 192, 0.26)"></use><use xlink:href="#SvgjsPath1208" x="270" y="90" stroke="rgba(255, 197, 192, 0.26)"></use><use xlink:href="#SvgjsPath1208" x="270" y="150" stroke="rgba(255, 197, 192, 0.26)"></use><use xlink:href="#SvgjsPath1208" x="270" y="210" stroke="rgba(255, 197, 192, 0.26)"></use><use xlink:href="#SvgjsPath1207" x="270" y="270" stroke="rgba(255, 197, 192, 0.26)"></use><use xlink:href="#SvgjsPath1209" x="270" y="330" stroke="rgba(255, 197, 192, 0.26)"></use><use xlink:href="#SvgjsPath1209" x="270" y="390" stroke="rgba(255, 197, 192, 0.26)"></use><use xlink:href="#SvgjsPath1207" x="330" y="30" stroke="rgba(255, 197, 192, 0.26)"></use><use xlink:href="#SvgjsPath1207" x="330" y="90" stroke="rgba(255, 197, 192, 0.26)"></use><use xlink:href="#SvgjsPath1208" x="330" y="150" stroke="rgba(255, 197, 192, 0.26)"></use><use xlink:href="#SvgjsPath1207" x="330" y="210" stroke="rgba(255, 197, 192, 0.26)"></use><use xlink:href="#SvgjsPath1207" x="330" y="270" stroke="rgba(255, 197, 192, 0.26)"></use><use xlink:href="#SvgjsPath1205" x="330" y="330" stroke="rgba(255, 197, 192, 0.26)"></use><use xlink:href="#SvgjsPath1205" x="330" y="390" stroke="rgba(255, 197, 192, 0.26)"></use><use xlink:href="#SvgjsPath1208" x="390" y="30" stroke="rgba(255, 197, 192, 0.26)"></use><use xlink:href="#SvgjsPath1208" x="390" y="90" stroke="rgba(255, 197, 192, 0.26)"></use><use xlink:href="#SvgjsPath1209" x="390" y="150" stroke="rgba(255, 197, 192, 0.26)"></use><use xlink:href="#SvgjsPath1208" x="390" y="210" stroke="rgba(255, 197, 192, 0.26)"></use><use xlink:href="#SvgjsPath1206" x="390" y="270" stroke="rgba(255, 197, 192, 0.26)"></use><use xlink:href="#SvgjsPath1207" x="390" y="330" stroke="rgba(255, 197, 192, 0.26)"></use><use xlink:href="#SvgjsPath1207" x="390" y="390" stroke="rgba(255, 197, 192, 0.26)"></use><use xlink:href="#SvgjsPath1208" x="450" y="30" stroke="rgba(255, 197, 192, 0.26)"></use><use xlink:href="#SvgjsPath1208" x="450" y="90" stroke="rgba(255, 197, 192, 0.26)"></use><use xlink:href="#SvgjsPath1206" x="450" y="150" stroke="rgba(255, 197, 192, 0.26)"></use><use xlink:href="#SvgjsPath1207" x="450" y="210" stroke="rgba(255, 197, 192, 0.26)"></use><use xlink:href="#SvgjsPath1206" x="450" y="270" stroke="rgba(255, 197, 192, 0.26)"></use><use xlink:href="#SvgjsPath1208" x="450" y="330" stroke="rgba(255, 197, 192, 0.26)"></use><use xlink:href="#SvgjsPath1206" x="450" y="390" stroke="rgba(255, 197, 192, 0.26)"></use><use xlink:href="#SvgjsPath1208" x="510" y="30" stroke="rgba(255, 197, 192, 0.26)"></use><use xlink:href="#SvgjsPath1208" x="510" y="90" stroke="rgba(255, 197, 192, 0.26)"></use><use xlink:href="#SvgjsPath1208" x="510" y="150" stroke="rgba(255, 197, 192, 0.26)"></use><use xlink:href="#SvgjsPath1208" x="510" y="210" stroke="rgba(255, 197, 192, 0.26)"></use><use xlink:href="#SvgjsPath1207" x="510" y="270" stroke="rgba(255, 197, 192, 0.26)"></use><use xlink:href="#SvgjsPath1208" x="510" y="330" stroke="rgba(255, 197, 192, 0.26)"></use><use xlink:href="#SvgjsPath1205" x="510" y="390" stroke="rgba(255, 197, 192, 0.26)"></use><use xlink:href="#SvgjsPath1207" x="570" y="30" stroke="rgba(255, 197, 192, 0.26)"></use><use xlink:href="#SvgjsPath1207" x="570" y="90" stroke="rgba(255, 197, 192, 0.26)"></use><use xlink:href="#SvgjsPath1207" x="570" y="150" stroke="rgba(255, 197, 192, 0.26)"></use><use xlink:href="#SvgjsPath1207" x="570" y="210" stroke="rgba(255, 197, 192, 0.26)"></use><use xlink:href="#SvgjsPath1210" x="570" y="270" stroke="rgba(255, 197, 192, 0.26)" stroke-width="3"></use><use xlink:href="#SvgjsPath1206" x="570" y="330" stroke="rgba(255, 197, 192, 0.26)"></use><use xlink:href="#SvgjsPath1208" x="570" y="390" stroke="rgba(255, 197, 192, 0.26)"></use><use xlink:href="#SvgjsPath1208" x="630" y="30" stroke="rgba(255, 197, 192, 0.26)"></use><use xlink:href="#SvgjsPath1207" x="630" y="90" stroke="rgba(255, 197, 192, 0.26)"></use><use xlink:href="#SvgjsPath1206" x="630" y="150" stroke="rgba(255, 197, 192, 0.26)"></use><use xlink:href="#SvgjsPath1208" x="630" y="210" stroke="rgba(255, 197, 192, 0.26)"></use><use xlink:href="#SvgjsPath1209" x="630" y="270" stroke="rgba(255, 197, 192, 0.26)"></use><use xlink:href="#SvgjsPath1205" x="630" y="330" stroke="rgba(255, 197, 192, 0.26)"></use><use xlink:href="#SvgjsPath1207" x="630" y="390" stroke="rgba(255, 197, 192, 0.26)"></use><use xlink:href="#SvgjsPath1208" x="690" y="30" stroke="rgba(255, 197, 192, 0.26)"></use><use xlink:href="#SvgjsPath1207" x="690" y="90" stroke="rgba(255, 197, 192, 0.26)"></use><use xlink:href="#SvgjsPath1207" x="690" y="150" stroke="rgba(255, 197, 192, 0.26)"></use><use xlink:href="#SvgjsPath1205" x="690" y="210" stroke="rgba(255, 197, 192, 0.26)"></use><use xlink:href="#SvgjsPath1208" x="690" y="270" stroke="rgba(255, 197, 192, 0.26)"></use><use xlink:href="#SvgjsPath1207" x="690" y="330" stroke="rgba(255, 197, 192, 0.26)"></use><use xlink:href="#SvgjsPath1208" x="690" y="390" stroke="rgba(255, 197, 192, 0.26)"></use></symbol></svg>