<svg xmlns="http://www.w3.org/2000/svg" version="1.1" xmlns:xlink="http://www.w3.org/1999/xlink" xmlns:svgjs="http://svgjs.com/svgjs" width="950" height="560" preserveAspectRatio="none" viewBox="0 0 950 560"><g mask="url(&quot;#SvgjsMask1032&quot;)" fill="none"><rect width="950" height="560" x="0" y="0" fill="rgba(255, 197, 192, 1)"></rect><path d="M0,448.193C81.348,463.118,154.053,390.157,214.378,333.578C267.802,283.471,290.679,213.27,321.381,146.77C352.222,79.968,396.619,16.818,394.577,-56.732C392.423,-134.299,359.375,-208.748,309.85,-268.486C259.689,-328.991,191.94,-375.083,115.5,-393.358C41.026,-411.163,-38.764,-400.752,-108.18,-368.427C-172.358,-338.542,-215.191,-279.483,-254.902,-220.874C-290.776,-167.928,-304.386,-107.053,-326.046,-46.878C-353.851,30.37,-437.255,109.504,-400.191,182.761C-362.615,257.029,-238.52,217.207,-169.157,263.213C-98.087,310.351,-83.881,432.804,0,448.193" fill="#ff7367"></path><path d="M950 881.45C1010.941 876.058 1065.882 852.5409999999999 1121.1680000000001 826.3430000000001 1184.298 796.428 1258.316 776.936 1295.439 717.7570000000001 1333.92 656.413 1335.185 577.71 1321.777 506.547 1308.699 437.13800000000003 1260.167 383.87 1221.404 324.827 1176.248 256.046 1150.4569999999999 166.228 1075.736 131.781 999.001 96.40499999999997 903.277 105.62299999999999 827.645 143.29899999999998 756.066 178.95600000000002 737.816 270.498 682.106 327.869 621.547 390.233 513.134 410.428 487.568 493.512 461.964 576.721 503.339 670.371 555.1949999999999 740.3009999999999 602.794 804.49 682.943 831.559 758.191 858.461 820.08 880.587 884.531 887.2429999999999 950 881.45" fill="#ffffff"></path></g><defs><mask id="SvgjsMask1032"><rect width="950" height="560" fill="#ffffff"></rect></mask></defs></svg>